<svg width="20" height="20" viewBox="0 0 20 20" fill="none" xmlns="http://www.w3.org/2000/svg">
<path fill-rule="evenodd" clip-rule="evenodd" d="M7.429 6.96876H11.143V8.81876C11.678 7.75476 13.05 6.79876 15.111 6.79876C19.062 6.79876 20 8.91676 20 12.8028V19.9998H16V13.6878C16 11.4748 15.465 10.2268 14.103 10.2268C12.214 10.2268 11.429 11.5718 11.429 13.6868V19.9998H7.429V6.96876ZM0.57 19.8298H4.57V6.79876H0.57V19.8298ZM5.143 2.54976C5.14315 2.88503 5.07666 3.21699 4.94739 3.52634C4.81812 3.8357 4.62865 4.11627 4.39 4.35176C3.9064 4.83238 3.25181 5.10141 2.57 5.09976C1.88939 5.0993 1.23631 4.83096 0.752 4.35276C0.514211 4.11647 0.325386 3.83558 0.196344 3.52619C0.0673015 3.2168 0.000579132 2.88498 0 2.54976C0 1.87276 0.27 1.22476 0.753 0.746756C1.23689 0.267914 1.89024 -0.000543351 2.571 -0.00024389C3.253 -0.00024389 3.907 0.268756 4.39 0.746756C4.872 1.22476 5.143 1.87276 5.143 2.54976Z" fill="#D9D389"/>
</svg>
