<svg width="204" height="41" viewBox="0 0 204 41" fill="none" xmlns="http://www.w3.org/2000/svg">
<path d="M32.4997 24.1934C31.0251 25.1271 29.3314 25.6182 27.6058 25.6124C26.1601 25.6004 24.7308 25.2924 23.3992 24.7059C22.3729 26.2151 21.8237 28.0199 21.8279 29.8693V34.5923C21.8282 34.768 21.7939 34.9418 21.7271 35.1031C21.6602 35.2643 21.5623 35.4096 21.4393 35.5297C21.3163 35.6499 21.1709 35.7424 21.0121 35.8015C20.8534 35.8607 20.6846 35.8852 20.5164 35.8736C20.2002 35.8449 19.9062 35.6928 19.6932 35.4478C19.4802 35.2027 19.364 34.8829 19.3679 34.5523V32.56L13.43 26.3747C12.5474 26.7178 11.6138 26.8972 10.6718 26.9048C9.37484 26.9082 8.1022 26.5385 6.99407 25.8366C3.64385 23.7161 1.84036 18.8362 2.18938 12.7775C2.20695 12.464 2.3344 12.1682 2.54754 11.9462C2.76068 11.7242 3.04467 11.5914 3.34558 11.5731C9.16194 11.2159 13.8467 13.0882 15.8762 16.578C16.6736 17.9458 17.0217 19.547 16.8679 21.1392C16.8583 21.2626 16.8147 21.3804 16.7422 21.4785C16.6697 21.5766 16.5715 21.6507 16.4594 21.6918C16.3474 21.733 16.2263 21.7395 16.1108 21.7105C15.9953 21.6815 15.8903 21.6182 15.8086 21.5284L12.8566 18.3093C12.624 18.0791 12.3144 17.9527 11.9936 17.957C11.6729 17.9613 11.3664 18.0959 11.1396 18.3322C10.9128 18.5684 10.7836 18.8876 10.7795 19.2217C10.7754 19.5558 10.8967 19.8784 11.1176 20.1206L19.4017 28.9693C19.4109 28.8443 19.4217 28.7194 19.434 28.5961C19.703 26.2206 20.7093 24.0015 22.2999 22.2763L30.0781 13.7144C30.3089 13.4742 30.4386 13.1483 30.4388 12.8085C30.4389 12.4686 30.3095 12.1426 30.0789 11.9022C29.8483 11.6618 29.5354 11.5266 29.2092 11.5265C28.8829 11.5263 28.57 11.6612 28.3392 11.9014L20.8054 20.2007C20.73 20.2839 20.6346 20.3446 20.5291 20.3763C20.4235 20.4081 20.3118 20.4099 20.2054 20.3814C20.099 20.353 20.0018 20.2954 19.924 20.2146C19.8462 20.1338 19.7906 20.0328 19.763 19.922C19.0342 17.1225 19.3556 14.3358 20.747 11.943C23.493 7.22164 29.8828 4.69437 37.8409 5.18125C38.1418 5.19955 38.4258 5.33232 38.639 5.55434C38.8521 5.77636 38.9796 6.07218 38.9971 6.38562C39.4584 14.6769 37.0322 21.333 32.4997 24.1934Z" fill="#D9D389"/>
<path d="M55.2333 32.1768C54.7785 32.1768 54.3586 32.0019 53.9738 31.652C53.5889 31.3372 53.3965 30.9523 53.3965 30.4975V13.5464C53.3965 12.6018 53.6939 11.8846 54.2886 11.3948C54.8834 10.905 55.5482 10.66 56.2829 10.66H61.8458C63.0353 10.66 64.1374 10.905 65.152 11.3948C66.2016 11.8496 67.0413 12.5318 67.671 13.4415C68.3008 14.3511 68.6157 15.4707 68.6157 16.8002C68.6157 18.8644 67.9509 20.5088 66.6214 21.7333C65.3269 22.9579 63.7525 23.5701 61.8982 23.5701H58.3821C57.5074 23.5701 57.0701 24.0949 57.0701 25.1445V30.4975C57.0701 30.9523 56.8777 31.3372 56.4928 31.652C56.1429 32.0019 55.7231 32.1768 55.2333 32.1768ZM58.1197 20.4213H61.321C62.1956 20.4213 63.0353 20.1589 63.84 19.6341C64.6797 19.1093 65.0995 18.1997 65.0995 16.9052C65.0995 15.8906 64.7147 15.1383 63.945 14.6485C63.2102 14.1237 62.4056 13.8613 61.5309 13.8613H58.2771C57.4025 13.8613 56.9651 14.2812 56.9651 15.1208V19.0044C56.9651 19.949 57.35 20.4213 58.1197 20.4213Z" fill="#D9D389"/>
<path d="M73.8297 32.1768C73.3748 32.1768 72.955 32.0369 72.5701 31.757C72.2203 31.4771 72.0453 31.0748 72.0453 30.55V10.6076C72.0453 10.0128 72.2203 9.57546 72.5701 9.29556C72.955 8.98068 73.3748 8.82324 73.8297 8.82324C74.2845 8.82324 74.6868 8.98068 75.0367 9.29556C75.4215 9.57546 75.614 10.0128 75.614 10.6076V30.55C75.614 31.0748 75.4215 31.4771 75.0367 31.757C74.6868 32.0369 74.2845 32.1768 73.8297 32.1768Z" fill="#D9D389"/>
<path d="M86.7078 32.1768C85.2033 32.1768 83.8563 31.827 82.6668 31.1272C81.4772 30.4275 80.5501 29.4654 79.8854 28.2408C79.2206 26.9813 78.8882 25.5819 78.8882 24.0424C78.8882 22.538 79.2206 21.191 79.8854 20.0015C80.5501 18.8119 81.4772 17.8848 82.6668 17.22C83.8563 16.5203 85.2033 16.1704 86.7078 16.1704C87.6874 16.1704 88.562 16.3454 89.3318 16.6952C90.1015 17.0101 90.7662 17.43 91.326 17.9548C91.396 17.465 91.6059 17.0976 91.9558 16.8527C92.3056 16.5728 92.6905 16.4328 93.1103 16.4328C93.5651 16.4328 93.9675 16.5903 94.3174 16.9052C94.7022 17.1851 94.8946 17.6224 94.8946 18.2172V30.55C94.8946 31.0748 94.7022 31.4771 94.3174 31.757C93.9675 32.0369 93.5651 32.1768 93.1103 32.1768C92.6555 32.1768 92.2356 32.0369 91.8508 31.757C91.5009 31.4771 91.326 31.0748 91.326 30.55V30.34C90.7662 30.8998 90.1015 31.3372 89.3318 31.652C88.562 32.0019 87.6874 32.1768 86.7078 32.1768ZM87.0226 28.9231C88.3521 28.9231 89.4017 28.4858 90.1714 27.6111C90.9411 26.7014 91.326 25.5119 91.326 24.0424C91.326 22.643 90.9411 21.5234 90.1714 20.6837C89.4017 19.844 88.3521 19.4242 87.0226 19.4242C85.6582 19.4242 84.5561 19.844 83.7164 20.6837C82.8767 21.5234 82.4569 22.643 82.4569 24.0424C82.4569 25.5119 82.8767 26.7014 83.7164 27.6111C84.5561 28.4858 85.6582 28.9231 87.0226 28.9231Z" fill="#D9D389"/>
<path d="M112.022 32.1768C111.567 32.1768 111.147 32.0369 110.762 31.757C110.412 31.4771 110.237 31.0748 110.237 30.55V23.9375C110.237 22.3981 109.887 21.261 109.188 20.5263C108.523 19.7916 107.631 19.4242 106.511 19.4242C105.077 19.4242 104.027 19.8965 103.362 20.8412C102.733 21.7508 102.418 22.7654 102.418 23.885V30.55C102.418 31.0748 102.225 31.4771 101.84 31.757C101.491 32.0369 101.088 32.1768 100.633 32.1768C100.179 32.1768 99.7587 32.0369 99.3739 31.757C99.024 31.4771 98.8491 31.0748 98.8491 30.55V18.2172C98.8491 17.6224 99.024 17.1851 99.3739 16.9052C99.7587 16.5903 100.179 16.4328 100.633 16.4328C101.088 16.4328 101.491 16.5903 101.84 16.9052C102.225 17.1851 102.418 17.6224 102.418 18.2172C103.013 17.6224 103.782 17.1326 104.727 16.7477C105.671 16.3629 106.564 16.1704 107.403 16.1704C109.363 16.1704 110.919 16.8002 112.074 18.0597C113.229 19.3192 113.806 21.1735 113.806 23.6226V30.55C113.806 31.0748 113.613 31.4771 113.229 31.757C112.844 32.0369 112.441 32.1768 112.022 32.1768Z" fill="#D9D389"/>
<path d="M123.691 32.1768C122.326 32.1768 121.207 31.757 120.332 30.9173C119.457 30.0776 119.02 28.8181 119.02 27.1388V20.4738C119.02 20.1239 118.845 19.949 118.495 19.949H117.55C117.096 19.949 116.711 19.8091 116.396 19.5292C116.081 19.2143 115.924 18.8294 115.924 18.3746C115.924 17.8848 116.081 17.4824 116.396 17.1676C116.711 16.8527 117.096 16.6952 117.55 16.6952H118.495C118.845 16.6952 119.02 16.5203 119.02 16.1704V11.7621C119.02 11.2723 119.177 10.8875 119.492 10.6076C119.842 10.2927 120.262 10.1352 120.752 10.1352C121.277 10.1352 121.696 10.2927 122.011 10.6076C122.361 10.8875 122.536 11.2723 122.536 11.7621V16.1704C122.536 16.5203 122.711 16.6952 123.061 16.6952H125.895C126.315 16.6952 126.682 16.8527 126.997 17.1676C127.312 17.4824 127.469 17.8848 127.469 18.3746C127.469 18.8294 127.312 19.2143 126.997 19.5292C126.717 19.8091 126.332 19.949 125.842 19.949H123.061C122.711 19.949 122.536 20.1239 122.536 20.4738V26.6664C122.536 28.1359 123.131 28.8706 124.32 28.8706C124.67 28.8706 125.038 28.8181 125.422 28.7132C125.807 28.6082 126.07 28.5557 126.21 28.5557C126.699 28.5557 127.067 28.7132 127.312 29.028C127.592 29.3429 127.732 29.7103 127.732 30.1301C127.732 30.445 127.644 30.7599 127.469 31.0748C127.294 31.3547 127.014 31.5646 126.629 31.7045C126.245 31.8445 125.755 31.9494 125.16 32.0194C124.6 32.1244 124.11 32.1768 123.691 32.1768Z" fill="#D9D389"/>
<path d="M137.138 32.1768C135.633 32.1768 134.286 31.827 133.097 31.1272C131.907 30.4275 130.98 29.4654 130.315 28.2408C129.651 26.9813 129.318 25.5819 129.318 24.0424C129.318 22.538 129.651 21.191 130.315 20.0015C130.98 18.8119 131.907 17.8848 133.097 17.22C134.286 16.5203 135.633 16.1704 137.138 16.1704C138.117 16.1704 138.992 16.3454 139.762 16.6952C140.531 17.0101 141.196 17.43 141.756 17.9548C141.826 17.465 142.036 17.0976 142.386 16.8527C142.736 16.5728 143.12 16.4328 143.54 16.4328C143.995 16.4328 144.397 16.5903 144.747 16.9052C145.132 17.1851 145.325 17.6224 145.325 18.2172V30.55C145.325 31.0748 145.132 31.4771 144.747 31.757C144.397 32.0369 143.995 32.1768 143.54 32.1768C143.085 32.1768 142.666 32.0369 142.281 31.757C141.931 31.4771 141.756 31.0748 141.756 30.55V30.34C141.196 30.8998 140.531 31.3372 139.762 31.652C138.992 32.0019 138.117 32.1768 137.138 32.1768ZM137.453 28.9231C138.782 28.9231 139.832 28.4858 140.601 27.6111C141.371 26.7014 141.756 25.5119 141.756 24.0424C141.756 22.643 141.371 21.5234 140.601 20.6837C139.832 19.844 138.782 19.4242 137.453 19.4242C136.088 19.4242 134.986 19.844 134.146 20.6837C133.307 21.5234 132.887 22.643 132.887 24.0424C132.887 25.5119 133.307 26.7014 134.146 27.6111C134.986 28.4858 136.088 28.9231 137.453 28.9231Z" fill="#D9D389"/>
<path d="M155.209 32.1768C153.845 32.1768 152.725 31.757 151.851 30.9173C150.976 30.0776 150.539 28.8181 150.539 27.1388V20.4738C150.539 20.1239 150.364 19.949 150.014 19.949H149.069C148.614 19.949 148.229 19.8091 147.915 19.5292C147.6 19.2143 147.442 18.8294 147.442 18.3746C147.442 17.8848 147.6 17.4824 147.915 17.1676C148.229 16.8527 148.614 16.6952 149.069 16.6952H150.014C150.364 16.6952 150.539 16.5203 150.539 16.1704V11.7621C150.539 11.2723 150.696 10.8875 151.011 10.6076C151.361 10.2927 151.781 10.1352 152.27 10.1352C152.795 10.1352 153.215 10.2927 153.53 10.6076C153.88 10.8875 154.055 11.2723 154.055 11.7621V16.1704C154.055 16.5203 154.23 16.6952 154.58 16.6952H157.413C157.833 16.6952 158.201 16.8527 158.516 17.1676C158.83 17.4824 158.988 17.8848 158.988 18.3746C158.988 18.8294 158.83 19.2143 158.516 19.5292C158.236 19.8091 157.851 19.949 157.361 19.949H154.58C154.23 19.949 154.055 20.1239 154.055 20.4738V26.6664C154.055 28.1359 154.65 28.8706 155.839 28.8706C156.189 28.8706 156.556 28.8181 156.941 28.7132C157.326 28.6082 157.588 28.5557 157.728 28.5557C158.218 28.5557 158.586 28.7132 158.83 29.028C159.11 29.3429 159.25 29.7103 159.25 30.1301C159.25 30.445 159.163 30.7599 158.988 31.0748C158.813 31.3547 158.533 31.5646 158.148 31.7045C157.763 31.8445 157.274 31.9494 156.679 32.0194C156.119 32.1244 155.629 32.1768 155.209 32.1768Z" fill="#D9D389"/>
<path d="M163.723 32.1768C163.269 32.1768 162.849 32.0369 162.464 31.757C162.114 31.4771 161.939 31.0748 161.939 30.55V17.9548C161.939 17.36 162.114 16.9227 162.464 16.6428C162.849 16.3279 163.269 16.1704 163.723 16.1704C164.178 16.1704 164.581 16.3279 164.93 16.6428C165.315 16.9227 165.508 17.36 165.508 17.9548V30.55C165.508 31.0748 165.315 31.4771 164.93 31.757C164.581 32.0369 164.178 32.1768 163.723 32.1768ZM163.776 13.284C163.111 13.284 162.534 13.0741 162.044 12.6543C161.589 12.1995 161.362 11.6572 161.362 11.0274C161.362 10.4326 161.589 9.92532 162.044 9.50548C162.534 9.05066 163.111 8.82324 163.776 8.82324C164.406 8.82324 164.948 9.05066 165.403 9.50548C165.858 9.92532 166.085 10.4326 166.085 11.0274C166.085 11.6572 165.858 12.1995 165.403 12.6543C164.948 13.0741 164.406 13.284 163.776 13.284Z" fill="#D9D389"/>
<path d="M176.864 32.1768C175.324 32.1768 173.925 31.827 172.665 31.1272C171.441 30.4275 170.479 29.4654 169.779 28.2408C169.079 26.9813 168.729 25.5819 168.729 24.0424C168.729 22.538 169.079 21.191 169.779 20.0015C170.479 18.8119 171.441 17.8848 172.665 17.22C173.925 16.5203 175.324 16.1704 176.864 16.1704C178.403 16.1704 179.785 16.5203 181.01 17.22C182.234 17.8848 183.196 18.8119 183.896 20.0015C184.631 21.191 184.998 22.538 184.998 24.0424C184.998 25.5819 184.631 26.9813 183.896 28.2408C183.196 29.4654 182.234 30.4275 181.01 31.1272C179.785 31.827 178.403 32.1768 176.864 32.1768ZM176.864 28.9231C178.228 28.9231 179.33 28.4858 180.17 27.6111C181.01 26.7014 181.43 25.5119 181.43 24.0424C181.43 22.643 181.01 21.5234 180.17 20.6837C179.33 19.844 178.228 19.4242 176.864 19.4242C175.464 19.4242 174.345 19.844 173.505 20.6837C172.7 21.5234 172.298 22.643 172.298 24.0424C172.298 25.5119 172.7 26.7014 173.505 27.6111C174.345 28.4858 175.464 28.9231 176.864 28.9231Z" fill="#D9D389"/>
<path d="M201.299 32.1768C200.844 32.1768 200.424 32.0369 200.04 31.757C199.69 31.4771 199.515 31.0748 199.515 30.55V23.9375C199.515 22.3981 199.165 21.261 198.465 20.5263C197.8 19.7916 196.908 19.4242 195.789 19.4242C194.354 19.4242 193.305 19.8965 192.64 20.8412C192.01 21.7508 191.695 22.7654 191.695 23.885V30.55C191.695 31.0748 191.503 31.4771 191.118 31.757C190.768 32.0369 190.366 32.1768 189.911 32.1768C189.456 32.1768 189.036 32.0369 188.651 31.757C188.302 31.4771 188.127 31.0748 188.127 30.55V18.2172C188.127 17.6224 188.302 17.1851 188.651 16.9052C189.036 16.5903 189.456 16.4328 189.911 16.4328C190.366 16.4328 190.768 16.5903 191.118 16.9052C191.503 17.1851 191.695 17.6224 191.695 18.2172C192.29 17.6224 193.06 17.1326 194.004 16.7477C194.949 16.3629 195.841 16.1704 196.681 16.1704C198.64 16.1704 200.197 16.8002 201.352 18.0597C202.506 19.3192 203.083 21.1735 203.083 23.6226V30.55C203.083 31.0748 202.891 31.4771 202.506 31.757C202.121 32.0369 201.719 32.1768 201.299 32.1768Z" fill="#D9D389"/>
</svg>
