<svg width="344" height="56" viewBox="0 0 344 56" fill="none" xmlns="http://www.w3.org/2000/svg">
<rect x="55.5" y="55.5" width="55" height="55" rx="27.5" transform="rotate(-180 55.5 55.5)" stroke="#0F2615"/>
<path d="M33.6575 28.6582L22.3438 28.6582M22.3438 28.6582L27.7743 34.0888M22.3438 28.6582L27.7743 23.2276" stroke="#0F2615" stroke-width="1.5" stroke-linecap="round" stroke-linejoin="round"/>
<rect x="72" width="56" height="56" rx="28" fill="#465928"/>
<path d="M102.006 21.8636V33.5H99.5455V24.1989H99.4773L96.8125 25.8693V23.6875L99.6932 21.8636H102.006Z" fill="#D9D389"/>
<rect x="144.5" y="0.5" width="55" height="55" rx="27.5" stroke="#0F2615"/>
<path d="M168.205 33.5V32.4773L172.045 28.2727C172.496 27.7803 172.867 27.3523 173.159 26.9886C173.451 26.6212 173.667 26.2765 173.807 25.9545C173.951 25.6288 174.023 25.2879 174.023 24.9318C174.023 24.5227 173.924 24.1686 173.727 23.8693C173.534 23.5701 173.269 23.339 172.932 23.1761C172.595 23.0133 172.216 22.9318 171.795 22.9318C171.348 22.9318 170.958 23.0246 170.625 23.2102C170.295 23.392 170.04 23.6477 169.858 23.9773C169.68 24.3068 169.591 24.6932 169.591 25.1364H168.25C168.25 24.4545 168.407 23.8561 168.722 23.3409C169.036 22.8258 169.464 22.4242 170.006 22.1364C170.551 21.8485 171.163 21.7045 171.841 21.7045C172.523 21.7045 173.127 21.8485 173.653 22.1364C174.18 22.4242 174.593 22.8125 174.892 23.3011C175.191 23.7898 175.341 24.3333 175.341 24.9318C175.341 25.3598 175.263 25.7784 175.108 26.1875C174.956 26.5928 174.691 27.0455 174.312 27.5455C173.938 28.0417 173.417 28.6477 172.75 29.3636L170.136 32.1591V32.25H175.545V33.5H168.205Z" fill="#0F2615"/>
<rect x="216.5" y="0.5" width="55" height="55" rx="27.5" stroke="#0F2615"/>
<path d="M243.636 33.6591C242.886 33.6591 242.218 33.5303 241.631 33.2727C241.047 33.0152 240.583 32.6572 240.239 32.1989C239.898 31.7367 239.712 31.2008 239.682 30.5909H241.114C241.144 30.9659 241.273 31.2898 241.5 31.5625C241.727 31.8314 242.025 32.0398 242.392 32.1875C242.759 32.3352 243.167 32.4091 243.614 32.4091C244.114 32.4091 244.557 32.322 244.943 32.1477C245.33 31.9735 245.633 31.7311 245.852 31.4205C246.072 31.1098 246.182 30.75 246.182 30.3409C246.182 29.9129 246.076 29.536 245.864 29.2102C245.652 28.8807 245.341 28.6231 244.932 28.4375C244.523 28.2519 244.023 28.1591 243.432 28.1591H242.5V26.9091H243.432C243.894 26.9091 244.299 26.8258 244.648 26.6591C245 26.4924 245.275 26.2576 245.472 25.9545C245.672 25.6515 245.773 25.2955 245.773 24.8864C245.773 24.4924 245.686 24.1496 245.511 23.858C245.337 23.5663 245.091 23.339 244.773 23.1761C244.458 23.0133 244.087 22.9318 243.659 22.9318C243.258 22.9318 242.879 23.0057 242.523 23.1534C242.17 23.2973 241.883 23.5076 241.659 23.7841C241.436 24.0568 241.314 24.3864 241.295 24.7727H239.932C239.955 24.1629 240.138 23.6288 240.483 23.1705C240.828 22.7083 241.278 22.3485 241.835 22.0909C242.396 21.8333 243.011 21.7045 243.682 21.7045C244.402 21.7045 245.019 21.8504 245.534 22.142C246.049 22.4299 246.445 22.8106 246.722 23.2841C246.998 23.7576 247.136 24.2689 247.136 24.8182C247.136 25.4735 246.964 26.0322 246.619 26.4943C246.278 26.9564 245.814 27.2765 245.227 27.4545V27.5455C245.962 27.6667 246.536 27.9792 246.949 28.483C247.362 28.983 247.568 29.6023 247.568 30.3409C247.568 30.9735 247.396 31.5417 247.051 32.0455C246.71 32.5455 246.244 32.9394 245.653 33.2273C245.063 33.5152 244.39 33.6591 243.636 33.6591Z" fill="#0F2615"/>
<rect x="288.5" y="0.5" width="55" height="55" rx="27.5" stroke="#0F2615"/>
<path d="M310.343 27.3418H321.656M321.656 27.3418L316.226 21.9112M321.656 27.3418L316.226 32.7724" stroke="#0F2615" stroke-width="1.5" stroke-linecap="round" stroke-linejoin="round"/>
</svg>
