<svg width="343" height="39" viewBox="0 0 343 39" fill="none" xmlns="http://www.w3.org/2000/svg">
<path d="M2.02273 31V7.72727H11.2045C12.9621 7.72727 14.4621 8.04167 15.7045 8.67045C16.9545 9.29167 17.9053 10.1742 18.5568 11.3182C19.2159 12.4545 19.5455 13.7917 19.5455 15.3295C19.5455 16.875 19.2121 18.2045 18.5455 19.3182C17.8788 20.4242 16.9129 21.2727 15.6477 21.8636C14.3902 22.4545 12.8674 22.75 11.0795 22.75H4.93182V18.7955H10.2841C11.2235 18.7955 12.0038 18.6667 12.625 18.4091C13.2462 18.1515 13.7083 17.7652 14.0114 17.25C14.322 16.7348 14.4773 16.0947 14.4773 15.3295C14.4773 14.5568 14.322 13.9053 14.0114 13.375C13.7083 12.8447 13.2424 12.4432 12.6136 12.1705C11.9924 11.8902 11.2083 11.75 10.2614 11.75H6.94318V31H2.02273ZM14.5909 20.4091L20.375 31H14.9432L9.28409 20.4091H14.5909ZM22.9318 37.5455V13.5455H27.7045V16.4773H27.9205C28.1326 16.0076 28.4394 15.5303 28.8409 15.0455C29.25 14.553 29.7803 14.1439 30.4318 13.8182C31.0909 13.4848 31.9091 13.3182 32.8864 13.3182C34.1591 13.3182 35.3333 13.6515 36.4091 14.3182C37.4848 14.9773 38.3447 15.9735 38.9886 17.3068C39.6326 18.6326 39.9545 20.2955 39.9545 22.2955C39.9545 24.2424 39.6402 25.8864 39.0114 27.2273C38.3902 28.5606 37.5417 29.572 36.4659 30.2614C35.3977 30.9432 34.2008 31.2841 32.875 31.2841C31.9356 31.2841 31.1364 31.1288 30.4773 30.8182C29.8258 30.5076 29.2917 30.1174 28.875 29.6477C28.4583 29.1705 28.1402 28.6894 27.9205 28.2045H27.7727V37.5455H22.9318ZM27.6705 22.2727C27.6705 23.3106 27.8144 24.2159 28.1023 24.9886C28.3902 25.7614 28.8068 26.3636 29.3523 26.7955C29.8977 27.2197 30.5606 27.4318 31.3409 27.4318C32.1288 27.4318 32.7955 27.2159 33.3409 26.7841C33.8864 26.3447 34.2992 25.7386 34.5795 24.9659C34.8674 24.1856 35.0114 23.2879 35.0114 22.2727C35.0114 21.2652 34.8712 20.3788 34.5909 19.6136C34.3106 18.8485 33.8977 18.25 33.3523 17.8182C32.8068 17.3864 32.1364 17.1705 31.3409 17.1705C30.553 17.1705 29.8864 17.3788 29.3409 17.7955C28.803 18.2121 28.3902 18.803 28.1023 19.5682C27.8144 20.3333 27.6705 21.2348 27.6705 22.2727ZM59.0426 31.3182C57.4366 31.3182 56.0047 31.0227 54.7472 30.4318C53.4972 29.8409 52.5047 29.0265 51.7699 27.9886C51.035 26.9508 50.6525 25.7614 50.6222 24.4205H55.3949C55.4479 25.322 55.8267 26.053 56.5312 26.6136C57.2358 27.1742 58.0729 27.4545 59.0426 27.4545C59.8153 27.4545 60.4972 27.2841 61.0881 26.9432C61.6866 26.5947 62.1525 26.1136 62.4858 25.5C62.8267 24.8788 62.9972 24.1667 62.9972 23.3636C62.9972 22.5455 62.8229 21.8258 62.4744 21.2045C62.1335 20.5833 61.66 20.0985 61.054 19.75C60.4479 19.4015 59.7547 19.2235 58.9744 19.2159C58.2926 19.2159 57.6297 19.3561 56.9858 19.6364C56.3494 19.9167 55.8532 20.2992 55.4972 20.7841L51.1222 20L52.2244 7.72727H66.4517V11.75H56.2812L55.679 17.5795H55.8153C56.2244 17.0038 56.8419 16.5265 57.6676 16.1477C58.4934 15.7689 59.4176 15.5795 60.4403 15.5795C61.8419 15.5795 63.0919 15.9091 64.1903 16.5682C65.2888 17.2273 66.1562 18.1326 66.7926 19.2841C67.429 20.428 67.7434 21.7462 67.7358 23.2386C67.7434 24.8068 67.3797 26.2008 66.6449 27.4205C65.9176 28.6326 64.8987 29.5871 63.5881 30.2841C62.285 30.9735 60.7699 31.3182 59.0426 31.3182ZM80.2926 31.5114C78.3381 31.5038 76.6563 31.0227 75.2472 30.0682C73.8456 29.1136 72.7661 27.7311 72.0085 25.9205C71.2585 24.1098 70.8873 21.9318 70.8949 19.3864C70.8949 16.8485 71.2699 14.6856 72.0199 12.8977C72.7775 11.1098 73.857 9.75 75.2585 8.81818C76.6676 7.87879 78.3456 7.40909 80.2926 7.40909C82.2396 7.40909 83.9138 7.87879 85.3153 8.81818C86.7244 9.75758 87.8078 11.1212 88.5653 12.9091C89.3229 14.6894 89.6979 16.8485 89.6903 19.3864C89.6903 21.9394 89.3116 24.1212 88.554 25.9318C87.804 27.7424 86.7282 29.125 85.3267 30.0795C83.9252 31.0341 82.2472 31.5114 80.2926 31.5114ZM80.2926 27.4318C81.6259 27.4318 82.6903 26.7614 83.4858 25.4205C84.2813 24.0795 84.6752 22.0682 84.6676 19.3864C84.6676 17.6212 84.4858 16.1515 84.1222 14.9773C83.7661 13.803 83.2585 12.9205 82.5994 12.3295C81.9479 11.7386 81.179 11.4432 80.2926 11.4432C78.9669 11.4432 77.9063 12.1061 77.1108 13.4318C76.3153 14.7576 75.9138 16.7424 75.9062 19.3864C75.9062 21.1742 76.0843 22.6667 76.4403 23.8636C76.804 25.053 77.3153 25.947 77.9744 26.5455C78.6335 27.1364 79.4062 27.4318 80.2926 27.4318ZM102.324 31.5114C100.369 31.5038 98.6875 31.0227 97.2784 30.0682C95.8769 29.1136 94.7973 27.7311 94.0398 25.9205C93.2898 24.1098 92.9186 21.9318 92.9261 19.3864C92.9261 16.8485 93.3011 14.6856 94.0511 12.8977C94.8087 11.1098 95.8883 9.75 97.2898 8.81818C98.6989 7.87879 100.377 7.40909 102.324 7.40909C104.271 7.40909 105.945 7.87879 107.347 8.81818C108.756 9.75758 109.839 11.1212 110.597 12.9091C111.354 14.6894 111.729 16.8485 111.722 19.3864C111.722 21.9394 111.343 24.1212 110.585 25.9318C109.835 27.7424 108.759 29.125 107.358 30.0795C105.956 31.0341 104.278 31.5114 102.324 31.5114ZM102.324 27.4318C103.657 27.4318 104.722 26.7614 105.517 25.4205C106.313 24.0795 106.706 22.0682 106.699 19.3864C106.699 17.6212 106.517 16.1515 106.153 14.9773C105.797 13.803 105.29 12.9205 104.631 12.3295C103.979 11.7386 103.21 11.4432 102.324 11.4432C100.998 11.4432 99.9375 12.1061 99.142 13.4318C98.3466 14.7576 97.9451 16.7424 97.9375 19.3864C97.9375 21.1742 98.1155 22.6667 98.4716 23.8636C98.8352 25.053 99.3466 25.947 100.006 26.5455C100.665 27.1364 101.438 27.4318 102.324 27.4318ZM117.168 31.2955C116.418 31.2955 115.774 31.0303 115.236 30.5C114.705 29.9621 114.44 29.3182 114.44 28.5682C114.44 27.8258 114.705 27.1894 115.236 26.6591C115.774 26.1288 116.418 25.8636 117.168 25.8636C117.895 25.8636 118.531 26.1288 119.077 26.6591C119.622 27.1894 119.895 27.8258 119.895 28.5682C119.895 29.0682 119.766 29.5265 119.509 29.9432C119.259 30.3523 118.929 30.6818 118.52 30.9318C118.111 31.1742 117.66 31.2955 117.168 31.2955ZM132.011 31.5114C130.057 31.5038 128.375 31.0227 126.966 30.0682C125.564 29.1136 124.485 27.7311 123.727 25.9205C122.977 24.1098 122.606 21.9318 122.614 19.3864C122.614 16.8485 122.989 14.6856 123.739 12.8977C124.496 11.1098 125.576 9.75 126.977 8.81818C128.386 7.87879 130.064 7.40909 132.011 7.40909C133.958 7.40909 135.633 7.87879 137.034 8.81818C138.443 9.75758 139.527 11.1212 140.284 12.9091C141.042 14.6894 141.417 16.8485 141.409 19.3864C141.409 21.9394 141.03 24.1212 140.273 25.9318C139.523 27.7424 138.447 29.125 137.045 30.0795C135.644 31.0341 133.966 31.5114 132.011 31.5114ZM132.011 27.4318C133.345 27.4318 134.409 26.7614 135.205 25.4205C136 24.0795 136.394 22.0682 136.386 19.3864C136.386 17.6212 136.205 16.1515 135.841 14.9773C135.485 13.803 134.977 12.9205 134.318 12.3295C133.667 11.7386 132.898 11.4432 132.011 11.4432C130.686 11.4432 129.625 12.1061 128.83 13.4318C128.034 14.7576 127.633 16.7424 127.625 19.3864C127.625 21.1742 127.803 22.6667 128.159 23.8636C128.523 25.053 129.034 25.947 129.693 26.5455C130.352 27.1364 131.125 27.4318 132.011 27.4318ZM154.043 31.5114C152.088 31.5038 150.406 31.0227 148.997 30.0682C147.596 29.1136 146.516 27.7311 145.759 25.9205C145.009 24.1098 144.637 21.9318 144.645 19.3864C144.645 16.8485 145.02 14.6856 145.77 12.8977C146.527 11.1098 147.607 9.75 149.009 8.81818C150.418 7.87879 152.096 7.40909 154.043 7.40909C155.99 7.40909 157.664 7.87879 159.065 8.81818C160.474 9.75758 161.558 11.1212 162.315 12.9091C163.073 14.6894 163.448 16.8485 163.44 19.3864C163.44 21.9394 163.062 24.1212 162.304 25.9318C161.554 27.7424 160.478 29.125 159.077 30.0795C157.675 31.0341 155.997 31.5114 154.043 31.5114ZM154.043 27.4318C155.376 27.4318 156.44 26.7614 157.236 25.4205C158.031 24.0795 158.425 22.0682 158.418 19.3864C158.418 17.6212 158.236 16.1515 157.872 14.9773C157.516 13.803 157.009 12.9205 156.349 12.3295C155.698 11.7386 154.929 11.4432 154.043 11.4432C152.717 11.4432 151.656 12.1061 150.861 13.4318C150.065 14.7576 149.664 16.7424 149.656 19.3864C149.656 21.1742 149.834 22.6667 150.19 23.8636C150.554 25.053 151.065 25.947 151.724 26.5455C152.384 27.1364 153.156 27.4318 154.043 27.4318ZM176.074 31.5114C174.119 31.5038 172.438 31.0227 171.028 30.0682C169.627 29.1136 168.547 27.7311 167.79 25.9205C167.04 24.1098 166.669 21.9318 166.676 19.3864C166.676 16.8485 167.051 14.6856 167.801 12.8977C168.559 11.1098 169.638 9.75 171.04 8.81818C172.449 7.87879 174.127 7.40909 176.074 7.40909C178.021 7.40909 179.695 7.87879 181.097 8.81818C182.506 9.75758 183.589 11.1212 184.347 12.9091C185.104 14.6894 185.479 16.8485 185.472 19.3864C185.472 21.9394 185.093 24.1212 184.335 25.9318C183.585 27.7424 182.509 29.125 181.108 30.0795C179.706 31.0341 178.028 31.5114 176.074 31.5114ZM176.074 27.4318C177.407 27.4318 178.472 26.7614 179.267 25.4205C180.063 24.0795 180.456 22.0682 180.449 19.3864C180.449 17.6212 180.267 16.1515 179.903 14.9773C179.547 13.803 179.04 12.9205 178.381 12.3295C177.729 11.7386 176.96 11.4432 176.074 11.4432C174.748 11.4432 173.688 12.1061 172.892 13.4318C172.097 14.7576 171.695 16.7424 171.688 19.3864C171.688 21.1742 171.866 22.6667 172.222 23.8636C172.585 25.053 173.097 25.947 173.756 26.5455C174.415 27.1364 175.188 27.4318 176.074 27.4318Z" fill="#0F2615"/>
<g opacity="0.5">
<path d="M196.114 33V15.5455H202.011C203.375 15.5455 204.494 15.7784 205.369 16.2443C206.244 16.7045 206.892 17.3381 207.312 18.1449C207.733 18.9517 207.943 19.8693 207.943 20.8977C207.943 21.9261 207.733 22.8381 207.312 23.6335C206.892 24.429 206.247 25.054 205.378 25.5085C204.509 25.9574 203.398 26.1818 202.045 26.1818H197.273V24.2727H201.977C202.909 24.2727 203.659 24.1364 204.227 23.8636C204.801 23.5909 205.216 23.2045 205.472 22.7045C205.733 22.1989 205.864 21.5966 205.864 20.8977C205.864 20.1989 205.733 19.5881 205.472 19.0653C205.21 18.5426 204.793 18.1392 204.219 17.8551C203.645 17.5653 202.886 17.4205 201.943 17.4205H198.227V33H196.114ZM204.33 25.1591L208.625 33H206.17L201.943 25.1591H204.33ZM211.192 37.9091V19.9091H213.136V21.9886H213.374C213.522 21.7614 213.727 21.4716 213.988 21.1193C214.255 20.7614 214.636 20.4432 215.13 20.1648C215.63 19.8807 216.306 19.7386 217.158 19.7386C218.261 19.7386 219.232 20.0142 220.073 20.5653C220.914 21.1165 221.57 21.8977 222.042 22.9091C222.513 23.9205 222.749 25.1136 222.749 26.4886C222.749 27.875 222.513 29.0767 222.042 30.0938C221.57 31.1051 220.917 31.8892 220.082 32.446C219.246 32.9972 218.283 33.2727 217.192 33.2727C216.352 33.2727 215.678 33.1335 215.173 32.8551C214.667 32.571 214.278 32.25 214.005 31.892C213.732 31.5284 213.522 31.2273 213.374 30.9886H213.204V37.9091H211.192ZM213.17 26.4545C213.17 27.4432 213.315 28.3153 213.604 29.071C213.894 29.821 214.317 30.4091 214.874 30.8352C215.431 31.2557 216.113 31.4659 216.92 31.4659C217.761 31.4659 218.462 31.2443 219.025 30.8011C219.593 30.3523 220.019 29.75 220.303 28.9943C220.593 28.233 220.738 27.3864 220.738 26.4545C220.738 25.5341 220.596 24.7045 220.312 23.9659C220.033 23.2216 219.61 22.6335 219.042 22.2017C218.479 21.7642 217.772 21.5455 216.92 21.5455C216.102 21.5455 215.414 21.7528 214.857 22.1676C214.3 22.5767 213.88 23.1506 213.596 23.8892C213.312 24.6222 213.17 25.4773 213.17 26.4545ZM238.67 15.5455V33H236.556V17.7614H236.454L232.192 20.5909V18.4432L236.556 15.5455H238.67ZM244.158 33.1364C243.738 33.1364 243.377 32.9858 243.076 32.6847C242.775 32.3835 242.624 32.0227 242.624 31.6023C242.624 31.1818 242.775 30.821 243.076 30.5199C243.377 30.2187 243.738 30.0682 244.158 30.0682C244.579 30.0682 244.94 30.2187 245.241 30.5199C245.542 30.821 245.692 31.1818 245.692 31.6023C245.692 31.8807 245.621 32.1364 245.479 32.3693C245.343 32.6023 245.158 32.7898 244.925 32.9318C244.698 33.0682 244.442 33.1364 244.158 33.1364ZM254.371 33.2386C253.371 33.2386 252.47 33.0398 251.669 32.642C250.868 32.2443 250.226 31.6989 249.743 31.0057C249.26 30.3125 248.996 29.5227 248.95 28.6364H250.996C251.075 29.4261 251.433 30.0795 252.07 30.5966C252.712 31.108 253.479 31.3636 254.371 31.3636C255.087 31.3636 255.723 31.196 256.28 30.8608C256.842 30.5256 257.283 30.0653 257.601 29.4801C257.925 28.8892 258.087 28.2216 258.087 27.4773C258.087 26.7159 257.919 26.0369 257.584 25.4403C257.254 24.8381 256.8 24.3636 256.22 24.017C255.641 23.6705 254.979 23.4943 254.234 23.4886C253.7 23.483 253.152 23.5653 252.589 23.7358C252.027 23.9006 251.564 24.1136 251.2 24.375L249.223 24.1364L250.28 15.5455H259.348V17.4205H252.053L251.439 22.5682H251.541C251.899 22.2841 252.348 22.0483 252.888 21.8608C253.428 21.6733 253.99 21.5795 254.575 21.5795C255.643 21.5795 256.595 21.8352 257.43 22.3466C258.271 22.8523 258.93 23.5455 259.408 24.4261C259.891 25.3068 260.132 26.3125 260.132 27.4432C260.132 28.5568 259.882 29.5511 259.382 30.4261C258.888 31.2955 258.206 31.983 257.337 32.4886C256.467 32.9886 255.479 33.2386 254.371 33.2386ZM269.211 33.2386C267.927 33.2386 266.833 32.8892 265.93 32.1903C265.026 31.4858 264.336 30.4659 263.859 29.1307C263.381 27.7898 263.143 26.1705 263.143 24.2727C263.143 22.3864 263.381 20.7756 263.859 19.4403C264.342 18.0994 265.035 17.0767 265.938 16.3722C266.847 15.6619 267.938 15.3068 269.211 15.3068C270.484 15.3068 271.572 15.6619 272.475 16.3722C273.384 17.0767 274.077 18.0994 274.555 19.4403C275.038 20.7756 275.279 22.3864 275.279 24.2727C275.279 26.1705 275.04 27.7898 274.563 29.1307C274.086 30.4659 273.396 31.4858 272.492 32.1903C271.589 32.8892 270.495 33.2386 269.211 33.2386ZM269.211 31.3636C270.484 31.3636 271.472 30.75 272.177 29.5227C272.881 28.2955 273.234 26.5455 273.234 24.2727C273.234 22.7614 273.072 21.4744 272.748 20.4119C272.43 19.3494 271.969 18.5398 271.367 17.983C270.771 17.4261 270.052 17.1477 269.211 17.1477C267.95 17.1477 266.964 17.7699 266.254 19.0142C265.543 20.2528 265.188 22.0057 265.188 24.2727C265.188 25.7841 265.347 27.0682 265.665 28.125C265.984 29.1818 266.441 29.9858 267.038 30.5369C267.64 31.0881 268.364 31.3636 269.211 31.3636ZM284.211 33.2386C282.927 33.2386 281.833 32.8892 280.93 32.1903C280.026 31.4858 279.336 30.4659 278.859 29.1307C278.381 27.7898 278.143 26.1705 278.143 24.2727C278.143 22.3864 278.381 20.7756 278.859 19.4403C279.342 18.0994 280.035 17.0767 280.938 16.3722C281.847 15.6619 282.938 15.3068 284.211 15.3068C285.484 15.3068 286.572 15.6619 287.475 16.3722C288.384 17.0767 289.077 18.0994 289.555 19.4403C290.038 20.7756 290.279 22.3864 290.279 24.2727C290.279 26.1705 290.04 27.7898 289.563 29.1307C289.086 30.4659 288.396 31.4858 287.492 32.1903C286.589 32.8892 285.495 33.2386 284.211 33.2386ZM284.211 31.3636C285.484 31.3636 286.472 30.75 287.177 29.5227C287.881 28.2955 288.234 26.5455 288.234 24.2727C288.234 22.7614 288.072 21.4744 287.748 20.4119C287.43 19.3494 286.969 18.5398 286.367 17.983C285.771 17.4261 285.052 17.1477 284.211 17.1477C282.95 17.1477 281.964 17.7699 281.254 19.0142C280.543 20.2528 280.188 22.0057 280.188 24.2727C280.188 25.7841 280.347 27.0682 280.665 28.125C280.984 29.1818 281.441 29.9858 282.038 30.5369C282.64 31.0881 283.364 31.3636 284.211 31.3636ZM294.408 33.1364C293.988 33.1364 293.627 32.9858 293.326 32.6847C293.025 32.3835 292.874 32.0227 292.874 31.6023C292.874 31.1818 293.025 30.821 293.326 30.5199C293.627 30.2187 293.988 30.0682 294.408 30.0682C294.829 30.0682 295.19 30.2187 295.491 30.5199C295.792 30.821 295.942 31.1818 295.942 31.6023C295.942 31.8807 295.871 32.1364 295.729 32.3693C295.593 32.6023 295.408 32.7898 295.175 32.9318C294.948 33.0682 294.692 33.1364 294.408 33.1364ZM304.602 33.2386C303.317 33.2386 302.224 32.8892 301.32 32.1903C300.417 31.4858 299.727 30.4659 299.249 29.1307C298.772 27.7898 298.533 26.1705 298.533 24.2727C298.533 22.3864 298.772 20.7756 299.249 19.4403C299.732 18.0994 300.425 17.0767 301.329 16.3722C302.238 15.6619 303.329 15.3068 304.602 15.3068C305.874 15.3068 306.962 15.6619 307.866 16.3722C308.775 17.0767 309.468 18.0994 309.945 19.4403C310.428 20.7756 310.67 22.3864 310.67 24.2727C310.67 26.1705 310.431 27.7898 309.954 29.1307C309.477 30.4659 308.786 31.4858 307.883 32.1903C306.979 32.8892 305.886 33.2386 304.602 33.2386ZM304.602 31.3636C305.874 31.3636 306.863 30.75 307.567 29.5227C308.272 28.2955 308.624 26.5455 308.624 24.2727C308.624 22.7614 308.462 21.4744 308.138 20.4119C307.82 19.3494 307.36 18.5398 306.758 17.983C306.161 17.4261 305.442 17.1477 304.602 17.1477C303.34 17.1477 302.354 17.7699 301.644 19.0142C300.934 20.2528 300.579 22.0057 300.579 24.2727C300.579 25.7841 300.738 27.0682 301.056 28.125C301.374 29.1818 301.832 29.9858 302.428 30.5369C303.031 31.0881 303.755 31.3636 304.602 31.3636ZM319.602 33.2386C318.317 33.2386 317.224 32.8892 316.32 32.1903C315.417 31.4858 314.727 30.4659 314.249 29.1307C313.772 27.7898 313.533 26.1705 313.533 24.2727C313.533 22.3864 313.772 20.7756 314.249 19.4403C314.732 18.0994 315.425 17.0767 316.329 16.3722C317.238 15.6619 318.329 15.3068 319.602 15.3068C320.874 15.3068 321.962 15.6619 322.866 16.3722C323.775 17.0767 324.468 18.0994 324.945 19.4403C325.428 20.7756 325.67 22.3864 325.67 24.2727C325.67 26.1705 325.431 27.7898 324.954 29.1307C324.477 30.4659 323.786 31.4858 322.883 32.1903C321.979 32.8892 320.886 33.2386 319.602 33.2386ZM319.602 31.3636C320.874 31.3636 321.863 30.75 322.567 29.5227C323.272 28.2955 323.624 26.5455 323.624 24.2727C323.624 22.7614 323.462 21.4744 323.138 20.4119C322.82 19.3494 322.36 18.5398 321.758 17.983C321.161 17.4261 320.442 17.1477 319.602 17.1477C318.34 17.1477 317.354 17.7699 316.644 19.0142C315.934 20.2528 315.579 22.0057 315.579 24.2727C315.579 25.7841 315.738 27.0682 316.056 28.125C316.374 29.1818 316.832 29.9858 317.428 30.5369C318.031 31.0881 318.755 31.3636 319.602 31.3636ZM334.602 33.2386C333.317 33.2386 332.224 32.8892 331.32 32.1903C330.417 31.4858 329.727 30.4659 329.249 29.1307C328.772 27.7898 328.533 26.1705 328.533 24.2727C328.533 22.3864 328.772 20.7756 329.249 19.4403C329.732 18.0994 330.425 17.0767 331.329 16.3722C332.238 15.6619 333.329 15.3068 334.602 15.3068C335.874 15.3068 336.962 15.6619 337.866 16.3722C338.775 17.0767 339.468 18.0994 339.945 19.4403C340.428 20.7756 340.67 22.3864 340.67 24.2727C340.67 26.1705 340.431 27.7898 339.954 29.1307C339.477 30.4659 338.786 31.4858 337.883 32.1903C336.979 32.8892 335.886 33.2386 334.602 33.2386ZM334.602 31.3636C335.874 31.3636 336.863 30.75 337.567 29.5227C338.272 28.2955 338.624 26.5455 338.624 24.2727C338.624 22.7614 338.462 21.4744 338.138 20.4119C337.82 19.3494 337.36 18.5398 336.758 17.983C336.161 17.4261 335.442 17.1477 334.602 17.1477C333.34 17.1477 332.354 17.7699 331.644 19.0142C330.934 20.2528 330.579 22.0057 330.579 24.2727C330.579 25.7841 330.738 27.0682 331.056 28.125C331.374 29.1818 331.832 29.9858 332.428 30.5369C333.031 31.0881 333.755 31.3636 334.602 31.3636Z" fill="#0F2615"/>
<path d="M194 25.142H342.102V26.7784H194V25.142Z" fill="#0F2615"/>
</g>
</svg>
