<svg width="19" height="18" viewBox="0 0 19 18" fill="none" xmlns="http://www.w3.org/2000/svg">
<path d="M8.74951 15.75C8.74951 16.58 8.07951 17.25 7.24951 17.25C6.41951 17.25 5.74951 16.58 5.74951 15.75C5.74951 14.92 6.41951 14.25 7.24951 14.25C8.07951 14.25 8.74951 14.92 8.74951 15.75ZM13.7495 14.25C12.9195 14.25 12.2495 14.92 12.2495 15.75C12.2495 16.58 12.9195 17.25 13.7495 17.25C14.5795 17.25 15.2495 16.58 15.2495 15.75C15.2495 14.92 14.5795 14.25 13.7495 14.25ZM18.2295 4.68L16.2295 12.68C16.1892 12.843 16.0954 12.9878 15.963 13.0911C15.8306 13.1945 15.6674 13.2504 15.4995 13.25H5.49951C5.13951 13.25 4.82951 12.99 4.75951 12.63L2.86951 2.25H1.49951C1.08951 2.25 0.749512 1.91 0.749512 1.5C0.749512 1.09 1.08951 0.75 1.49951 0.75H3.49951C3.85951 0.75 4.16951 1.01 4.23951 1.37L4.66951 3.75H17.4995C17.6132 3.75048 17.7254 3.77667 17.8275 3.82662C17.9297 3.87657 18.0192 3.94898 18.0894 4.03844C18.1597 4.12789 18.2087 4.23207 18.233 4.34317C18.2572 4.45427 18.2561 4.56942 18.2295 4.68ZM16.5395 5.25H4.93951L6.11951 11.75H14.9095L16.5395 5.25Z" fill="#D9D389"/>
</svg>
