<svg width="20" height="24" viewBox="0 0 20 24" fill="none" xmlns="http://www.w3.org/2000/svg">
<path d="M16.8941 17.3949L11.5916 22.6989C11.3827 22.908 11.1346 23.0738 10.8615 23.187C10.5884 23.3001 10.2957 23.3584 10.0001 23.3584C9.70452 23.3584 9.41182 23.3001 9.13875 23.187C8.86567 23.0738 8.61757 22.908 8.40862 22.6989L3.10612 17.3949C2.20069 16.4895 1.48244 15.4147 0.992387 14.2318C0.502333 13.0489 0.25007 11.7811 0.25 10.5006C0.24993 9.22025 0.502056 7.95237 0.991981 6.7694C1.48191 5.58643 2.20004 4.51155 3.10537 3.60612C4.0107 2.70069 5.08551 1.98244 6.26842 1.49239C7.45133 1.00233 8.71918 0.75007 9.99959 0.75C11.28 0.74993 12.5479 1.00206 13.7308 1.49198C14.9138 1.98191 15.9887 2.70004 16.8941 3.60537C17.7996 4.51076 18.5179 5.58565 19.008 6.76866C19.4981 7.95166 19.7503 9.21962 19.7503 10.5001C19.7503 11.7806 19.4981 13.0486 19.008 14.2316C18.5179 15.4146 17.7996 16.4895 16.8941 17.3949ZM15.3041 5.19687C13.8974 3.79016 11.9895 2.99838 10.0001 2.99838C8.01073 2.99838 6.10283 3.78866 4.69612 5.19537C3.28941 6.60208 2.49913 8.50998 2.49913 10.4994C2.49913 12.4888 3.28941 14.3967 4.69612 15.8034L10.0001 21.1059L15.3041 15.8049C16.0008 15.1084 16.5534 14.2815 16.9304 13.3715C17.3075 12.4614 17.5015 11.4859 17.5015 10.5009C17.5015 9.51579 17.3075 8.54036 16.9304 7.63029C16.5534 6.72022 16.0008 5.89333 15.3041 5.19687ZM10.0001 13.5009C9.60061 13.5099 9.20332 13.439 8.83158 13.2924C8.45984 13.1458 8.12114 12.9264 7.83536 12.6471C7.54958 12.3677 7.32249 12.0341 7.16741 11.6659C7.01233 11.2976 6.9324 10.902 6.9323 10.5024C6.9322 10.1028 7.01193 9.70717 7.16683 9.3388C7.32172 8.97043 7.54865 8.63672 7.83429 8.35726C8.11993 8.07779 8.45852 7.85822 8.83019 7.71141C9.20185 7.56461 9.59911 7.49353 9.99862 7.50237C10.7825 7.5197 11.5284 7.84321 12.0767 8.40363C12.625 8.96405 12.9321 9.71685 12.9323 10.5009C12.9325 11.2849 12.6257 12.0379 12.0777 12.5986C11.5297 13.1593 10.784 13.4831 10.0001 13.5009Z" fill="#D9D389"/>
</svg>
