<svg width="20" height="14" viewBox="0 0 20 14" fill="none" xmlns="http://www.w3.org/2000/svg">
<path d="M18 1H2C1.73478 1 1.48043 1.10536 1.29289 1.29289C1.10536 1.48043 1 1.73478 1 2V12C1 12.2652 1.10536 12.5196 1.29289 12.7071C1.48043 12.8946 1.73478 13 2 13H18C18.2652 13 18.5196 12.8946 18.7071 12.7071C18.8946 12.5196 19 12.2652 19 12V2C19 1.73478 18.8946 1.48043 18.7071 1.29289C18.5196 1.10536 18.2652 1 18 1Z" stroke="#D9D389" stroke-width="2" stroke-linejoin="round"/>
<path d="M1 3L8.89 8.26C9.21866 8.47928 9.6049 8.5963 10 8.5963C10.3951 8.5963 10.7813 8.47928 11.11 8.26L19 3" stroke="#D9D389" stroke-width="2" stroke-linecap="round"/>
</svg>
