<svg width="16" height="20" viewBox="0 0 16 20" fill="none" xmlns="http://www.w3.org/2000/svg">
<path d="M7.12218 3.10103C6.97423 2.69825 6.67777 2.36734 6.2936 2.17619C5.90944 1.98504 5.46669 1.94812 5.05618 2.07303C3.11018 2.67303 1.75018 4.34303 2.04218 6.27503C2.36874 8.4193 3.09535 10.4831 4.18418 12.359C5.26135 14.2306 6.6735 15.8882 8.35018 17.249C9.85818 18.469 11.9742 18.133 13.4662 16.733C13.78 16.4385 13.9704 16.0358 13.999 15.6064C14.0276 15.1769 13.8922 14.7526 13.6202 14.419L12.5522 13.113C12.3383 12.8504 12.0504 12.6581 11.7258 12.5611C11.4013 12.4641 11.0551 12.4669 10.7322 12.569L8.26818 13.349L7.83818 12.905C7.29639 12.3431 6.82247 11.7195 6.42618 11.047C6.04154 10.367 5.74196 9.64219 5.53418 8.88903L5.36818 8.29903L7.26818 6.54903C7.51889 6.31623 7.69477 6.01418 7.77346 5.68122C7.85216 5.34827 7.83013 4.99944 7.71018 4.67903L7.12418 3.10303L7.12218 3.10103ZM4.46818 0.161027C5.36648 -0.113818 6.33589 -0.0347148 7.17775 0.382127C8.01962 0.798969 8.6702 1.52199 8.99618 2.40303L9.58218 3.97903C9.84068 4.67142 9.88743 5.42504 9.71649 6.14407C9.54555 6.86311 9.16463 7.51506 8.62218 8.01703L7.64218 8.91903C7.76818 9.26703 7.93818 9.66503 8.15818 10.051C8.37818 10.431 8.63418 10.777 8.86818 11.059L10.1282 10.659C10.8326 10.4366 11.5876 10.4308 12.2954 10.6422C13.0031 10.8537 13.6312 11.2727 14.0982 11.845L15.1662 13.151C15.7597 13.8768 16.0556 14.8009 15.9939 15.7365C15.9323 16.6721 15.5178 17.5493 14.8342 18.191C12.8462 20.057 9.60018 20.831 7.09418 18.803C5.22686 17.2881 3.65403 15.4428 2.45418 13.359C1.23948 11.2667 0.428743 8.96476 0.0641763 6.57303C-0.415824 3.38703 1.87018 0.961027 4.46818 0.163027V0.161027Z" fill="#D9D389"/>
</svg>
