<svg width="182" height="18" viewBox="0 0 182 18" fill="none" xmlns="http://www.w3.org/2000/svg">
<path d="M0.497159 5.59304V3.81818H8.85938V5.59304H5.74219V14H3.61435V5.59304H0.497159ZM10.1967 14V6.36364H12.3146V14H10.1967ZM11.2607 5.37926C10.9458 5.37926 10.6757 5.27486 10.4503 5.06605C10.2282 4.85393 10.1172 4.60038 10.1172 4.3054C10.1172 4.01373 10.2282 3.76349 10.4503 3.55469C10.6757 3.34257 10.9458 3.23651 11.2607 3.23651C11.5755 3.23651 11.844 3.34257 12.0661 3.55469C12.2914 3.76349 12.4041 4.01373 12.4041 4.3054C12.4041 4.60038 12.2914 4.85393 12.0661 5.06605C11.844 5.27486 11.5755 5.37926 11.2607 5.37926ZM14.0112 16.8636V6.36364H16.0993V7.64631H16.1937C16.2865 7.44081 16.4208 7.23201 16.5964 7.01989C16.7754 6.80445 17.0074 6.62547 17.2924 6.48295C17.5808 6.33712 17.9387 6.2642 18.3663 6.2642C18.9231 6.2642 19.4368 6.41004 19.9075 6.7017C20.3781 6.99006 20.7543 7.4259 21.036 8.00923C21.3178 8.58925 21.4586 9.31676 21.4586 10.1918C21.4586 11.0436 21.3211 11.7628 21.046 12.3494C20.7742 12.9328 20.403 13.3752 19.9324 13.6768C19.465 13.9751 18.9413 14.1243 18.3613 14.1243C17.9503 14.1243 17.6007 14.0563 17.3123 13.9205C17.0273 13.7846 16.7936 13.6139 16.6113 13.4084C16.429 13.1996 16.2898 12.9891 16.1937 12.777H16.1291V16.8636H14.0112ZM16.0843 10.1818C16.0843 10.6359 16.1473 11.032 16.2733 11.37C16.3992 11.7081 16.5815 11.9716 16.8201 12.1605C17.0588 12.3461 17.3488 12.4389 17.6902 12.4389C18.0349 12.4389 18.3265 12.3445 18.5652 12.1555C18.8038 11.9633 18.9844 11.6982 19.1071 11.3601C19.233 11.0187 19.296 10.6259 19.296 10.1818C19.296 9.741 19.2347 9.35322 19.112 9.01847C18.9894 8.68371 18.8088 8.42187 18.5701 8.23295C18.3315 8.04403 18.0382 7.94957 17.6902 7.94957C17.3455 7.94957 17.0538 8.04072 16.8152 8.22301C16.5798 8.4053 16.3992 8.66383 16.2733 8.99858C16.1473 9.33333 16.0843 9.72775 16.0843 10.1818ZM29.2243 8.54119L27.2853 8.66051C27.2522 8.49479 27.1809 8.34564 27.0716 8.21307C26.9622 8.07718 26.818 7.96946 26.639 7.88991C26.4634 7.80705 26.2529 7.76562 26.0076 7.76562C25.6795 7.76562 25.4028 7.83523 25.1774 7.97443C24.952 8.11032 24.8393 8.29261 24.8393 8.52131C24.8393 8.7036 24.9122 8.85772 25.0581 8.98366C25.2039 9.10961 25.4541 9.2107 25.8088 9.28693L27.1909 9.56534C27.9333 9.7178 28.4868 9.96307 28.8514 10.3011C29.216 10.6392 29.3983 11.0833 29.3983 11.6335C29.3983 12.134 29.2508 12.5732 28.9558 12.951C28.6641 13.3288 28.2631 13.6238 27.7527 13.8359C27.2456 14.0447 26.6606 14.1491 25.9977 14.1491C24.9868 14.1491 24.1814 13.9387 23.5815 13.5178C22.9849 13.0935 22.6352 12.5168 22.5325 11.7876L24.6156 11.6783C24.6786 11.9865 24.831 12.2218 25.073 12.3842C25.3149 12.5433 25.6248 12.6229 26.0027 12.6229C26.3739 12.6229 26.6722 12.5516 26.8975 12.4091C27.1262 12.2633 27.2422 12.076 27.2456 11.8473C27.2422 11.6551 27.161 11.4976 27.002 11.375C26.8429 11.2491 26.5976 11.1529 26.2662 11.0866L24.9437 10.8232C24.198 10.674 23.6428 10.4155 23.2782 10.0476C22.917 9.67969 22.7363 9.2107 22.7363 8.64062C22.7363 8.15009 22.8689 7.72751 23.1341 7.37287C23.4025 7.01823 23.7787 6.74479 24.2626 6.55256C24.7498 6.36032 25.3199 6.2642 25.9728 6.2642C26.9373 6.2642 27.6963 6.46804 28.2498 6.87571C28.8066 7.28338 29.1315 7.83854 29.2243 8.54119ZM37.0943 14.1491C36.3916 14.1491 35.7851 14.0232 35.2747 13.7713C34.7643 13.5194 34.3715 13.178 34.0964 12.7472C33.8246 12.313 33.6887 11.8291 33.6887 11.2955C33.6887 10.8977 33.7683 10.5447 33.9274 10.2365C34.0865 9.92827 34.3085 9.64489 34.5936 9.38636C34.8786 9.12453 35.21 8.86435 35.5879 8.60582L37.5616 7.30824C37.8168 7.14583 38.0041 6.97514 38.1234 6.79616C38.2427 6.61387 38.3024 6.41667 38.3024 6.20455C38.3024 6.00237 38.2212 5.8151 38.0588 5.64276C37.8964 5.47041 37.666 5.38589 37.3677 5.3892C37.1689 5.3892 36.9965 5.43395 36.8507 5.52344C36.7048 5.60961 36.5905 5.72396 36.5076 5.86648C36.4281 6.00568 36.3883 6.16146 36.3883 6.33381C36.3883 6.54593 36.448 6.76136 36.5673 6.98011C36.6866 7.19886 36.8457 7.43087 37.0446 7.67614C37.2434 7.91809 37.4605 8.17992 37.6958 8.46165L42.5233 14H40.3159L36.2889 9.51562C36.0237 9.21402 35.7586 8.89915 35.4934 8.57102C35.2316 8.23958 35.0128 7.88826 34.8372 7.51705C34.6615 7.14252 34.5737 6.73651 34.5737 6.29901C34.5737 5.80516 34.688 5.36103 34.9167 4.96662C35.1487 4.57221 35.4735 4.26065 35.8912 4.03196C36.3088 3.79995 36.796 3.68395 37.3528 3.68395C37.8964 3.68395 38.3654 3.79498 38.7598 4.01705C39.1575 4.2358 39.4624 4.52746 39.6745 4.89205C39.89 5.25331 39.9977 5.65104 39.9977 6.08523C39.9977 6.56581 39.8784 7.00166 39.6397 7.39276C39.4044 7.78054 39.073 8.12855 38.6454 8.43679L36.5673 9.93324C36.2856 10.1387 36.0768 10.3492 35.9409 10.5646C35.8083 10.7768 35.742 10.9806 35.742 11.1761C35.742 11.4181 35.8017 11.6352 35.921 11.8274C36.0403 12.0196 36.2093 12.1721 36.4281 12.2848C36.6468 12.3942 36.9037 12.4489 37.1987 12.4489C37.5566 12.4489 37.9096 12.3677 38.2576 12.2053C38.609 12.0395 38.9271 11.8059 39.2122 11.5043C39.5005 11.1993 39.7309 10.8381 39.9032 10.4205C40.0756 10.0028 40.1618 9.54048 40.1618 9.03338H41.9167C41.9167 9.65649 41.8488 10.2183 41.7129 10.7188C41.577 11.2159 41.3881 11.6501 41.1461 12.0213C40.9042 12.3892 40.6274 12.6908 40.3159 12.9261C40.2164 12.9891 40.1203 13.0488 40.0275 13.1051C39.9347 13.1615 39.8386 13.2211 39.7392 13.2841C39.3613 13.589 38.9387 13.8094 38.4714 13.9453C38.0074 14.0812 37.5484 14.1491 37.0943 14.1491ZM46.2979 5.59304V3.81818H54.6602V5.59304H51.543V14H49.4151V5.59304H46.2979ZM55.2045 14V6.36364H57.2578V7.69602H57.3374C57.4766 7.22206 57.7102 6.86411 58.0384 6.62216C58.3665 6.37689 58.7443 6.25426 59.1719 6.25426C59.2779 6.25426 59.3923 6.26089 59.5149 6.27415C59.6375 6.28741 59.7453 6.30563 59.8381 6.32883V8.2081C59.7386 8.17827 59.6011 8.15175 59.4254 8.12855C59.2498 8.10535 59.089 8.09375 58.9432 8.09375C58.6316 8.09375 58.3532 8.1617 58.108 8.29759C57.866 8.43016 57.6738 8.61577 57.5312 8.8544C57.392 9.09304 57.3224 9.36813 57.3224 9.67969V14H55.2045ZM60.9331 14V6.36364H63.051V14H60.9331ZM61.997 5.37926C61.6821 5.37926 61.412 5.27486 61.1866 5.06605C60.9645 4.85393 60.8535 4.60038 60.8535 4.3054C60.8535 4.01373 60.9645 3.76349 61.1866 3.55469C61.412 3.34257 61.6821 3.23651 61.997 3.23651C62.3118 3.23651 62.5803 3.34257 62.8024 3.55469C63.0278 3.76349 63.1404 4.01373 63.1404 4.3054C63.1404 4.60038 63.0278 4.85393 62.8024 5.06605C62.5803 5.27486 62.3118 5.37926 61.997 5.37926ZM68.1978 14.1491C67.4156 14.1491 66.7428 13.9834 66.1793 13.652C65.6192 13.3172 65.1883 12.8532 64.8867 12.2599C64.5884 11.6667 64.4393 10.9839 64.4393 10.2116C64.4393 9.42945 64.5901 8.74337 64.8917 8.15341C65.1966 7.56013 65.6291 7.09777 66.1893 6.76633C66.7494 6.43158 67.4156 6.2642 68.1879 6.2642C68.854 6.2642 69.4374 6.38518 69.9379 6.62713C70.4383 6.86908 70.8344 7.20881 71.1261 7.64631C71.4177 8.08381 71.5785 8.59754 71.6083 9.1875H69.6097C69.5534 8.80634 69.4042 8.49976 69.1623 8.26776C68.9237 8.03243 68.6104 7.91477 68.2227 7.91477C67.8945 7.91477 67.6078 8.00426 67.3626 8.18324C67.1206 8.3589 66.9317 8.61577 66.7958 8.95384C66.6599 9.2919 66.592 9.70123 66.592 10.1818C66.592 10.669 66.6583 11.0833 66.7908 11.4247C66.9267 11.7661 67.1173 12.0263 67.3626 12.2053C67.6078 12.3842 67.8945 12.4737 68.2227 12.4737C68.4646 12.4737 68.6817 12.424 68.8739 12.3246C69.0695 12.2251 69.2302 12.081 69.3562 11.892C69.4854 11.6998 69.57 11.4695 69.6097 11.201H71.6083C71.5752 11.7843 71.4161 12.2981 71.131 12.7422C70.8493 13.183 70.4599 13.5277 69.9627 13.7763C69.4656 14.0249 68.8772 14.1491 68.1978 14.1491ZM74.8833 11.8026L74.8883 9.26207H75.1966L77.6426 6.36364H80.0737L76.7875 10.2017H76.2853L74.8833 11.8026ZM72.9643 14V3.81818H75.0822V14H72.9643ZM77.737 14L75.4899 10.674L76.9018 9.17756L80.2179 14H77.737Z" fill="#F7F8FA"/>
<circle cx="91.5" cy="8.5" r="2.5" fill="#F7F8FA"/>
<path d="M106.634 3.81818V14H105.401V5.1108H105.341L102.855 6.76136V5.50852L105.401 3.81818H106.634ZM112.883 14.1392C112.134 14.1392 111.496 13.9354 110.969 13.5277C110.442 13.1167 110.039 12.5218 109.761 11.7429C109.482 10.9607 109.343 10.0161 109.343 8.90909C109.343 7.80871 109.482 6.86908 109.761 6.0902C110.042 5.308 110.447 4.71141 110.974 4.30043C111.504 3.88613 112.14 3.67898 112.883 3.67898C113.625 3.67898 114.26 3.88613 114.787 4.30043C115.317 4.71141 115.722 5.308 116 6.0902C116.282 6.86908 116.423 7.80871 116.423 8.90909C116.423 10.0161 116.283 10.9607 116.005 11.7429C115.727 12.5218 115.324 13.1167 114.797 13.5277C114.27 13.9354 113.632 14.1392 112.883 14.1392ZM112.883 13.0455C113.625 13.0455 114.202 12.6875 114.613 11.9716C115.024 11.2557 115.229 10.2348 115.229 8.90909C115.229 8.02746 115.135 7.27675 114.946 6.65696C114.76 6.03717 114.492 5.56487 114.141 5.24006C113.793 4.91525 113.373 4.75284 112.883 4.75284C112.147 4.75284 111.572 5.11577 111.158 5.84162C110.743 6.56416 110.536 7.58665 110.536 8.90909C110.536 9.79072 110.629 10.5398 110.815 11.1562C111 11.7727 111.267 12.2417 111.615 12.5632C111.966 12.8847 112.389 13.0455 112.883 13.0455ZM122.428 3.81818H123.9L127.36 12.2699H127.479L130.94 3.81818H132.411V14H131.258V6.2642H131.158L127.977 14H126.863L123.681 6.2642H123.582V14H122.428V3.81818ZM134.724 14V6.36364H135.898V14H134.724ZM135.321 5.09091C135.092 5.09091 134.895 5.01302 134.729 4.85724C134.567 4.70147 134.486 4.5142 134.486 4.29545C134.486 4.0767 134.567 3.88944 134.729 3.73366C134.895 3.57789 135.092 3.5 135.321 3.5C135.55 3.5 135.745 3.57789 135.907 3.73366C136.073 3.88944 136.156 4.0767 136.156 4.29545C136.156 4.5142 136.073 4.70147 135.907 4.85724C135.745 5.01302 135.55 5.09091 135.321 5.09091ZM139.22 9.40625V14H138.047V6.36364H139.18V7.55682H139.279C139.458 7.16903 139.73 6.85748 140.095 6.62216C140.459 6.38352 140.93 6.2642 141.507 6.2642C142.024 6.2642 142.476 6.37027 142.864 6.58239C143.252 6.79119 143.553 7.10938 143.769 7.53693C143.984 7.96117 144.092 8.49811 144.092 9.14773V14H142.919V9.22727C142.919 8.62737 142.763 8.16004 142.451 7.82528C142.14 7.48722 141.712 7.31818 141.169 7.31818C140.794 7.31818 140.459 7.39938 140.164 7.56179C139.873 7.72419 139.642 7.96117 139.473 8.27273C139.304 8.58428 139.22 8.96212 139.22 9.40625ZM151.645 8.07386L150.591 8.37216C150.525 8.1965 150.427 8.0258 150.298 7.86009C150.172 7.69105 149.999 7.55185 149.781 7.44247C149.562 7.3331 149.282 7.27841 148.941 7.27841C148.473 7.27841 148.084 7.38613 147.772 7.60156C147.464 7.81368 147.31 8.08381 147.31 8.41193C147.31 8.7036 147.416 8.93395 147.628 9.10298C147.84 9.27202 148.172 9.41288 148.622 9.52557L149.756 9.80398C150.439 9.9697 150.947 10.2232 151.282 10.5646C151.617 10.9027 151.784 11.3385 151.784 11.8722C151.784 12.3097 151.658 12.7008 151.406 13.0455C151.158 13.3902 150.81 13.6619 150.362 13.8608C149.915 14.0597 149.395 14.1591 148.801 14.1591C148.022 14.1591 147.378 13.9901 146.867 13.652C146.357 13.3139 146.034 12.8201 145.898 12.1705L147.012 11.892C147.118 12.303 147.318 12.6113 147.613 12.8168C147.911 13.0223 148.301 13.125 148.781 13.125C149.328 13.125 149.762 13.009 150.084 12.777C150.409 12.5417 150.571 12.2599 150.571 11.9318C150.571 11.6667 150.478 11.4446 150.293 11.2656C150.107 11.0833 149.822 10.9474 149.438 10.858L148.165 10.5597C147.466 10.3939 146.952 10.1371 146.624 9.78906C146.299 9.43774 146.137 8.99858 146.137 8.47159C146.137 8.04072 146.258 7.65956 146.499 7.32812C146.745 6.99669 147.078 6.73651 147.499 6.54758C147.923 6.35866 148.404 6.2642 148.941 6.2642C149.696 6.2642 150.289 6.42992 150.72 6.76136C151.155 7.0928 151.463 7.5303 151.645 8.07386ZM159.735 14.179C159.251 14.179 158.812 14.0878 158.418 13.9055C158.023 13.7199 157.71 13.4531 157.478 13.1051C157.246 12.7538 157.13 12.3295 157.13 11.8324C157.13 11.3949 157.216 11.0402 157.388 10.7685C157.561 10.4934 157.791 10.2779 158.08 10.1222C158.368 9.96638 158.686 9.85038 159.034 9.77415C159.385 9.6946 159.738 9.63163 160.093 9.58523C160.557 9.52557 160.933 9.48082 161.222 9.45099C161.513 9.41785 161.725 9.36316 161.858 9.28693C161.994 9.2107 162.062 9.07812 162.062 8.8892V8.84943C162.062 8.3589 161.928 7.97775 161.659 7.70597C161.394 7.43419 160.991 7.2983 160.451 7.2983C159.891 7.2983 159.452 7.42093 159.134 7.66619C158.815 7.91146 158.592 8.1733 158.462 8.4517L157.349 8.05398C157.548 7.58996 157.813 7.22869 158.144 6.97017C158.479 6.70833 158.844 6.52604 159.238 6.4233C159.636 6.31723 160.027 6.2642 160.411 6.2642C160.656 6.2642 160.938 6.29403 161.256 6.35369C161.578 6.41004 161.888 6.5277 162.186 6.70668C162.488 6.88565 162.738 7.15578 162.937 7.51705C163.136 7.87831 163.235 8.36222 163.235 8.96875V14H162.062V12.9659H162.002C161.923 13.1316 161.79 13.3089 161.604 13.4979C161.419 13.6868 161.172 13.8475 160.864 13.9801C160.555 14.1127 160.179 14.179 159.735 14.179ZM159.914 13.125C160.378 13.125 160.769 13.0339 161.087 12.8516C161.409 12.6693 161.651 12.4339 161.813 12.1456C161.979 11.8572 162.062 11.554 162.062 11.2358V10.1619C162.012 10.2216 161.903 10.2763 161.734 10.326C161.568 10.3724 161.376 10.4138 161.157 10.4503C160.942 10.4834 160.731 10.5133 160.526 10.5398C160.323 10.563 160.159 10.5829 160.033 10.5994C159.728 10.6392 159.443 10.7038 159.178 10.7933C158.916 10.8795 158.704 11.0104 158.542 11.1861C158.383 11.3584 158.303 11.5937 158.303 11.892C158.303 12.2997 158.454 12.608 158.756 12.8168C159.061 13.0223 159.447 13.125 159.914 13.125ZM168.459 17.0227C167.892 17.0227 167.405 16.9498 166.997 16.804C166.59 16.6615 166.25 16.4725 165.978 16.2372C165.71 16.0052 165.496 15.7566 165.337 15.4915L166.271 14.8352C166.378 14.9744 166.512 15.1335 166.674 15.3125C166.837 15.4948 167.059 15.6522 167.34 15.7848C167.625 15.9207 167.998 15.9886 168.459 15.9886C169.075 15.9886 169.584 15.8395 169.985 15.5412C170.386 15.2429 170.587 14.7756 170.587 14.1392V12.5881H170.487C170.401 12.7273 170.279 12.8996 170.119 13.1051C169.964 13.3073 169.738 13.4879 169.443 13.647C169.152 13.8028 168.757 13.8807 168.26 13.8807C167.644 13.8807 167.09 13.7348 166.6 13.4432C166.112 13.1515 165.726 12.7273 165.441 12.1705C165.16 11.6136 165.019 10.9375 165.019 10.142C165.019 9.35985 165.156 8.67874 165.431 8.09872C165.706 7.51539 166.089 7.06463 166.58 6.74645C167.07 6.42495 167.637 6.2642 168.28 6.2642C168.777 6.2642 169.172 6.34706 169.463 6.51278C169.758 6.67519 169.984 6.8608 170.139 7.0696C170.298 7.27509 170.421 7.44413 170.507 7.5767H170.627V6.36364H171.76V14.2188C171.76 14.875 171.611 15.4086 171.313 15.8196C171.018 16.2339 170.62 16.5372 170.119 16.7294C169.622 16.925 169.069 17.0227 168.459 17.0227ZM168.419 12.8267C168.89 12.8267 169.288 12.719 169.612 12.5036C169.937 12.2881 170.184 11.9782 170.353 11.5739C170.522 11.1695 170.607 10.6856 170.607 10.1222C170.607 9.57197 170.524 9.08641 170.358 8.66548C170.192 8.24455 169.947 7.91477 169.622 7.67614C169.298 7.4375 168.896 7.31818 168.419 7.31818C167.922 7.31818 167.508 7.44413 167.176 7.69602C166.848 7.94792 166.601 8.28598 166.436 8.71023C166.273 9.13447 166.192 9.60511 166.192 10.1222C166.192 10.6525 166.275 11.1214 166.441 11.5291C166.61 11.9335 166.858 12.2517 167.186 12.4837C167.518 12.7124 167.929 12.8267 168.419 12.8267ZM177.01 14.1591C176.321 14.1591 175.716 13.995 175.195 13.6669C174.678 13.3388 174.274 12.8797 173.982 12.2898C173.694 11.6998 173.55 11.0104 173.55 10.2216C173.55 9.42614 173.694 8.73177 173.982 8.13849C174.274 7.54522 174.678 7.08452 175.195 6.75639C175.716 6.42827 176.321 6.2642 177.01 6.2642C177.7 6.2642 178.303 6.42827 178.82 6.75639C179.34 7.08452 179.744 7.54522 180.033 8.13849C180.325 8.73177 180.47 9.42614 180.47 10.2216C180.47 11.0104 180.325 11.6998 180.033 12.2898C179.744 12.8797 179.34 13.3388 178.82 13.6669C178.303 13.995 177.7 14.1591 177.01 14.1591ZM177.01 13.1051C177.534 13.1051 177.965 12.9709 178.303 12.7024C178.641 12.4339 178.891 12.081 179.053 11.6435C179.216 11.206 179.297 10.732 179.297 10.2216C179.297 9.71117 179.216 9.23556 179.053 8.79474C178.891 8.35393 178.641 7.99763 178.303 7.72585C177.965 7.45407 177.534 7.31818 177.01 7.31818C176.486 7.31818 176.056 7.45407 175.718 7.72585C175.379 7.99763 175.129 8.35393 174.967 8.79474C174.804 9.23556 174.723 9.71117 174.723 10.2216C174.723 10.732 174.804 11.206 174.967 11.6435C175.129 12.081 175.379 12.4339 175.718 12.7024C176.056 12.9709 176.486 13.1051 177.01 13.1051Z" fill="#F7F8FA"/>
</svg>
